<?xml version="1.0" standalone="no"?>
<!DOCTYPE svg PUBLIC "-//W3C//DTD SVG 20010904//EN"
 "http://www.w3.org/TR/2001/REC-SVG-20010904/DTD/svg10.dtd">
<svg version="1.0" xmlns="http://www.w3.org/2000/svg"
 width="700.000000pt" height="700.000000pt" viewBox="0 0 700.000000 700.000000"
 preserveAspectRatio="xMidYMid meet">
<metadata>
Created by potrace 1.14, written by Peter Selinger 2001-2017
</metadata>
<g transform="translate(0.000000,700.000000) scale(0.100000,-0.100000)"
fill="#000000" stroke="none">
<path d="M3424 6282 l-51 -3 3 -37 c2 -20 6 -53 8 -72 4 -32 3 -35 -22 -36
-40 -1 -145 -13 -197 -23 -25 -5 -47 -6 -49 -2 -4 6 -12 45 -20 95 -3 16 -7
31 -10 33 -3 3 -62 -9 -133 -26 -164 -40 -142 -34 -266 -76 -166 -56 -317
-126 -515 -237 -59 -33 -204 -133 -302 -209 -100 -77 -348 -318 -416 -404 -21
-27 -41 -52 -45 -55 -14 -13 -140 -192 -181 -259 -143 -230 -288 -575 -338
-801 -10 -44 -19 -61 -48 -83 -97 -75 -272 -244 -374 -362 -172 -199 -284
-413 -323 -620 -9 -48 -7 -185 4 -241 53 -271 289 -489 656 -604 81 -26 275
-72 303 -72 18 0 34 -20 77 -93 184 -314 420 -583 695 -796 89 -69 240 -173
300 -206 186 -104 289 -152 464 -218 102 -37 365 -108 446 -120 25 -3 52 -8
60 -10 18 -5 140 -19 263 -29 41 -4 38 -11 40 94 l2 45 137 0 138 0 1 -35 c3
-108 3 -105 34 -104 54 3 181 14 202 18 11 3 38 7 59 10 22 3 50 8 64 11 14 2
36 6 50 9 112 18 442 116 464 137 6 5 16 9 23 9 34 0 309 138 444 223 321 202
621 488 814 777 28 41 52 77 55 80 22 20 220 394 220 414 0 3 9 25 19 49 50
107 134 401 160 557 6 36 13 74 15 85 2 11 7 58 11 105 4 47 9 99 11 115 5 39
5 328 -1 380 -2 22 -6 74 -10 115 l-6 75 46 45 c83 80 228 258 282 345 84 136
133 253 158 369 70 343 -84 625 -441 804 -146 74 -377 140 -579 166 -147 19
-248 28 -362 31 l-91 3 -79 59 c-235 179 -479 312 -753 413 -125 46 -382 114
-470 125 -30 4 -58 8 -61 10 -3 2 -32 6 -65 9 -32 4 -84 9 -114 12 -60 7 -325
11 -406 6z m938 -387 c46 -15 92 -30 103 -35 11 -5 56 -24 100 -41 157 -64
428 -218 531 -302 10 -9 53 -42 94 -75 136 -107 304 -283 424 -443 l57 -77
126 34 c69 18 132 35 139 38 15 6 -63 124 -164 249 -32 38 -65 80 -75 93 l-19
24 39 -5 c268 -38 433 -83 587 -163 283 -146 356 -372 213 -662 -74 -151 -164
-268 -340 -443 -74 -73 -148 -137 -287 -250 -45 -37 -178 -132 -270 -194 -541
-361 -1241 -680 -2005 -911 -165 -50 -488 -135 -558 -147 -18 -3 -48 -10 -67
-15 -47 -12 -175 -38 -225 -45 -22 -4 -56 -10 -75 -15 -19 -5 -58 -12 -86 -15
-28 -3 -61 -8 -74 -10 -91 -17 -352 -47 -540 -60 -78 -6 -476 -6 -545 0 -22 2
-59 4 -83 4 -42 1 -43 2 -68 58 -78 172 -156 441 -180 613 -2 19 -7 46 -9 60
-13 68 -19 191 -19 345 0 150 10 319 19 335 1 3 5 28 9 55 15 127 93 413 152
555 40 96 165 333 219 416 112 172 196 274 353 430 149 149 389 333 414 317
11 -6 350 -296 384 -328 6 -5 117 -102 247 -214 l237 -203 2 -718 3 -718 130
125 c72 69 229 221 350 338 275 265 430 415 550 530 l94 90 3 703 c2 548 5
702 15 702 6 0 49 -11 95 -25z m-3553 -2392 c0 -104 2 -204 5 -223 3 -19 8
-62 11 -95 18 -189 87 -484 147 -632 12 -29 19 -55 16 -58 -8 -9 -184 50 -258
86 -124 59 -234 153 -276 234 -39 76 -52 202 -30 299 21 90 102 243 190 357
48 62 185 219 192 219 1 0 3 -84 3 -187z m5298 -55 c-7 -231 -9 -245 -43 -423
-113 -590 -436 -1124 -901 -1493 l-103 -81 -209 209 -209 210 -753 0 -754 0
-319 -319 -319 -319 -66 35 c-302 162 -559 369 -763 615 -77 93 -188 245 -188
257 0 3 109 6 243 6 213 1 386 7 482 19 17 2 57 7 90 10 33 4 76 9 95 11 56 7
316 45 341 50 13 3 62 12 109 21 47 9 92 18 101 19 134 26 435 100 609 150 69
20 132 37 140 40 92 22 660 220 702 245 10 5 22 10 27 10 13 0 306 124 436
185 451 209 871 457 1175 693 36 28 69 51 74 51 5 1 6 -86 3 -201z"/>
<path d="M5950 4714 c-68 -19 -126 -36 -127 -38 -2 -2 12 -34 31 -72 18 -38
44 -93 56 -122 23 -53 24 -54 58 -47 30 6 185 48 219 60 9 3 3 27 -21 82 -46
106 -79 173 -85 172 -4 0 -62 -16 -131 -35z"/>
</g>
</svg>
